<svg width="1440" height="716" xmlns="http://www.w3.org/2000/svg"><g><path d="M-91,-54L-108,888L-82,537Z" fill="#a4e4a4" stroke="#a4e4a4" fill-opacity="1" stroke-opacity="1"/><path d="M-91,-54L-82,537L-70,499Z" fill="#cff8b8" stroke="#cff8b8" fill-opacity="1" stroke-opacity="1"/><path d="M-91,-54L-70,499L-24,210Z" fill="#ebffc2" stroke="#ebffc2" fill-opacity="1" stroke-opacity="1"/><path d="M-91,-54L-24,210L-40,39Z" fill="#ffffd7" stroke="#ffffd7" fill-opacity="1" stroke-opacity="1"/><path d="M-91,-54L-40,39L96,-66Z" fill="#ffffe6" stroke="#ffffe6" fill-opacity="1" stroke-opacity="1"/><path d="M-91,-54L96,-66L166,-74Z" fill="#fbfde1" stroke="#fbfde1" fill-opacity="1" stroke-opacity="1"/><path d="M96,-66L-40,39L48,82Z" fill="#fdfed9" stroke="#fdfed9" fill-opacity="1" stroke-opacity="1"/><path d="M96,-66L48,82L188,23Z" fill="#f6fcd4" stroke="#f6fcd4" fill-opacity="1" stroke-opacity="1"/><path d="M96,-66L188,23L166,-74Z" fill="#f3fbd9" stroke="#f3fbd9" fill-opacity="1" stroke-opacity="1"/><path d="M166,-74L188,23L332,-52Z" fill="#edf8d2" stroke="#edf8d2" fill-opacity="1" stroke-opacity="1"/><path d="M166,-74L332,-52L457,-91Z" fill="#e5f5ce" stroke="#e5f5ce" fill-opacity="1" stroke-opacity="1"/><path d="M166,-74L457,-91L602,-105Z" fill="#ddf1ca" stroke="#ddf1ca" fill-opacity="1" stroke-opacity="1"/><path d="M332,-52L188,23L315,104Z" fill="#e9f6c5" stroke="#e9f6c5" fill-opacity="1" stroke-opacity="1"/><path d="M332,-52L315,104L501,25Z" fill="#dff2c0" stroke="#dff2c0" fill-opacity="1" stroke-opacity="1"/><path d="M332,-52L501,25L457,-91Z" fill="#dbf0c9" stroke="#dbf0c9" fill-opacity="1" stroke-opacity="1"/><path d="M457,-91L501,25L602,-105Z" fill="#d2ecc5" stroke="#d2ecc5" fill-opacity="1" stroke-opacity="1"/><path d="M602,-105L501,25L545,68Z" fill="#cfebbf" stroke="#cfebbf" fill-opacity="1" stroke-opacity="1"/><path d="M602,-105L545,68L716,-94Z" fill="#c7e7c1" stroke="#c7e7c1" fill-opacity="1" stroke-opacity="1"/><path d="M602,-105L716,-94L1210,-94Z" fill="#aadab3" stroke="#aadab3" fill-opacity="1" stroke-opacity="1"/><path d="M716,-94L545,68L737,92Z" fill="#c2e5b4" stroke="#c2e5b4" fill-opacity="1" stroke-opacity="1"/><path d="M716,-94L737,92L822,35Z" fill="#b6e0b1" stroke="#b6e0b1" fill-opacity="1" stroke-opacity="1"/><path d="M716,-94L822,35L810,-88Z" fill="#b2deb7" stroke="#b2deb7" fill-opacity="1" stroke-opacity="1"/><path d="M716,-94L810,-88L1210,-94Z" fill="#9fd5ad" stroke="#9fd5ad" fill-opacity="1" stroke-opacity="1"/><path d="M810,-88L822,35L966,-80Z" fill="#a6d8b1" stroke="#a6d8b1" fill-opacity="1" stroke-opacity="1"/><path d="M810,-88L966,-80L1210,-94Z" fill="#95cda8" stroke="#95cda8" fill-opacity="1" stroke-opacity="1"/><path d="M966,-80L822,35L978,81Z" fill="#9ed4a4" stroke="#9ed4a4" fill-opacity="1" stroke-opacity="1"/><path d="M966,-80L978,81L1074,-59Z" fill="#94cca5" stroke="#94cca5" fill-opacity="1" stroke-opacity="1"/><path d="M966,-80L1074,-59L1210,-94Z" fill="#8cc2a2" stroke="#8cc2a2" fill-opacity="1" stroke-opacity="1"/><path d="M1074,-59L978,81L1074,85Z" fill="#90c797" stroke="#90c797" fill-opacity="1" stroke-opacity="1"/><path d="M1074,-59L1074,85L1223,66Z" fill="#88bd93" stroke="#88bd93" fill-opacity="1" stroke-opacity="1"/><path d="M1074,-59L1223,66L1210,-94Z" fill="#83b89d" stroke="#83b89d" fill-opacity="1" stroke-opacity="1"/><path d="M1210,-94L1223,66L1381,-38Z" fill="#80ab95" stroke="#80ab95" fill-opacity="1" stroke-opacity="1"/><path d="M1210,-94L1381,-38L1461,-35Z" fill="#80a192" stroke="#80a192" fill-opacity="1" stroke-opacity="1"/><path d="M1210,-94L1461,-35L1591,-29Z" fill="#80998e" stroke="#80998e" fill-opacity="1" stroke-opacity="1"/><path d="M1381,-38L1223,66L1415,99Z" fill="#80a384" stroke="#80a384" fill-opacity="1" stroke-opacity="1"/><path d="M1381,-38L1415,99L1467,68Z" fill="#80997f" stroke="#80997f" fill-opacity="1" stroke-opacity="1"/><path d="M1381,-38L1467,68L1461,-35Z" fill="#809787" stroke="#809787" fill-opacity="1" stroke-opacity="1"/><path d="M1461,-35L1467,68L1591,-29Z" fill="#808e82" stroke="#808e82" fill-opacity="1" stroke-opacity="1"/><path d="M1591,-29L1467,68L1642,17Z" fill="#80877b" stroke="#80877b" fill-opacity="1" stroke-opacity="1"/><path d="M-40,39L-24,210L48,82Z" fill="#ffffca" stroke="#ffffca" fill-opacity="1" stroke-opacity="1"/><path d="M48,82L-24,210L73,201Z" fill="#f4fec0" stroke="#f4fec0" fill-opacity="1" stroke-opacity="1"/><path d="M48,82L73,201L242,169Z" fill="#effbb9" stroke="#effbb9" fill-opacity="1" stroke-opacity="1"/><path d="M48,82L242,169L188,23Z" fill="#f3fabf" stroke="#f3fabf" fill-opacity="1" stroke-opacity="1"/><path d="M188,23L242,169L315,104Z" fill="#ebf7b6" stroke="#ebf7b6" fill-opacity="1" stroke-opacity="1"/><path d="M315,104L242,169L311,161Z" fill="#e3f6ae" stroke="#e3f6ae" fill-opacity="1" stroke-opacity="1"/><path d="M315,104L311,161L489,228Z" fill="#d7f3a8" stroke="#d7f3a8" fill-opacity="1" stroke-opacity="1"/><path d="M315,104L489,228L541,146Z" fill="#d1f0a6" stroke="#d1f0a6" fill-opacity="1" stroke-opacity="1"/><path d="M315,104L541,146L501,25Z" fill="#d9efaf" stroke="#d9efaf" fill-opacity="1" stroke-opacity="1"/><path d="M501,25L541,146L545,68Z" fill="#d1ecae" stroke="#d1ecae" fill-opacity="1" stroke-opacity="1"/><path d="M545,68L541,146L737,92Z" fill="#c8e8a6" stroke="#c8e8a6" fill-opacity="1" stroke-opacity="1"/><path d="M737,92L541,146L717,207Z" fill="#bce59d" stroke="#bce59d" fill-opacity="1" stroke-opacity="1"/><path d="M737,92L717,207L847,171Z" fill="#addf96" stroke="#addf96" fill-opacity="1" stroke-opacity="1"/><path d="M737,92L847,171L822,35Z" fill="#b0dd9b" stroke="#b0dd9b" fill-opacity="1" stroke-opacity="1"/><path d="M822,35L847,171L952,152Z" fill="#a5d892" stroke="#a5d892" fill-opacity="1" stroke-opacity="1"/><path d="M822,35L952,152L978,81Z" fill="#9fd495" stroke="#9fd495" fill-opacity="1" stroke-opacity="1"/><path d="M978,81L952,152L1074,85Z" fill="#94cc8b" stroke="#94cc8b" fill-opacity="1" stroke-opacity="1"/><path d="M1074,85L952,152L1089,242Z" fill="#88c883" stroke="#88c883" fill-opacity="1" stroke-opacity="1"/><path d="M1074,85L1089,242L1215,232Z" fill="#79bd7a" stroke="#79bd7a" fill-opacity="1" stroke-opacity="1"/><path d="M1074,85L1215,232L1223,66Z" fill="#81b77e" stroke="#81b77e" fill-opacity="1" stroke-opacity="1"/><path d="M1223,66L1215,232L1329,239Z" fill="#74ad73" stroke="#74ad73" fill-opacity="1" stroke-opacity="1"/><path d="M1223,66L1329,239L1415,99Z" fill="#7da574" stroke="#7da574" fill-opacity="1" stroke-opacity="1"/><path d="M1415,99L1329,239L1513,176Z" fill="#75996a" stroke="#75996a" fill-opacity="1" stroke-opacity="1"/><path d="M1415,99L1513,176L1467,68Z" fill="#80936e" stroke="#80936e" fill-opacity="1" stroke-opacity="1"/><path d="M1467,68L1513,176L1642,17Z" fill="#808a6f" stroke="#808a6f" fill-opacity="1" stroke-opacity="1"/><path d="M1642,17L1513,176L1659,206Z" fill="#7d8263" stroke="#7d8263" fill-opacity="1" stroke-opacity="1"/><path d="M-24,210L-70,499L-22,325Z" fill="#cbf7b3" stroke="#cbf7b3" fill-opacity="1" stroke-opacity="1"/><path d="M-24,210L-22,325L73,201Z" fill="#e4feb9" stroke="#e4feb9" fill-opacity="1" stroke-opacity="1"/><path d="M73,201L-22,325L81,367Z" fill="#d4f9b1" stroke="#d4f9b1" fill-opacity="1" stroke-opacity="1"/><path d="M73,201L81,367L236,308Z" fill="#cef7aa" stroke="#cef7aa" fill-opacity="1" stroke-opacity="1"/><path d="M73,201L236,308L242,169Z" fill="#dbfaad" stroke="#dbfaad" fill-opacity="1" stroke-opacity="1"/><path d="M242,169L236,308L343,298Z" fill="#ccf5a3" stroke="#ccf5a3" fill-opacity="1" stroke-opacity="1"/><path d="M242,169L343,298L311,161Z" fill="#d4f5a7" stroke="#d4f5a7" fill-opacity="1" stroke-opacity="1"/><path d="M311,161L343,298L489,228Z" fill="#c9f2a1" stroke="#c9f2a1" fill-opacity="1" stroke-opacity="1"/><path d="M489,228L343,298L466,280Z" fill="#baee9b" stroke="#baee9b" fill-opacity="1" stroke-opacity="1"/><path d="M489,228L466,280L583,362Z" fill="#ade995" stroke="#ade995" fill-opacity="1" stroke-opacity="1"/><path d="M489,228L583,362L689,321Z" fill="#a1e490" stroke="#a1e490" fill-opacity="1" stroke-opacity="1"/><path d="M489,228L689,321L541,146Z" fill="#b5ea98" stroke="#b5ea98" fill-opacity="1" stroke-opacity="1"/><path d="M541,146L689,321L717,207Z" fill="#aee696" stroke="#aee696" fill-opacity="1" stroke-opacity="1"/><path d="M717,207L689,321L812,290Z" fill="#97df8c" stroke="#97df8c" fill-opacity="1" stroke-opacity="1"/><path d="M717,207L812,290L847,171Z" fill="#9cde8d" stroke="#9cde8d" fill-opacity="1" stroke-opacity="1"/><path d="M847,171L812,290L945,329Z" fill="#87d683" stroke="#87d683" fill-opacity="1" stroke-opacity="1"/><path d="M847,171L945,329L952,152Z" fill="#8bd584" stroke="#8bd584" fill-opacity="1" stroke-opacity="1"/><path d="M952,152L945,329L1089,242Z" fill="#7ccd7d" stroke="#7ccd7d" fill-opacity="1" stroke-opacity="1"/><path d="M1089,242L945,329L1135,372Z" fill="#62bf71" stroke="#62bf71" fill-opacity="1" stroke-opacity="1"/><path d="M1089,242L1135,372L1215,232Z" fill="#61b76f" stroke="#61b76f" fill-opacity="1" stroke-opacity="1"/><path d="M1215,232L1135,372L1271,343Z" fill="#53ad68" stroke="#53ad68" fill-opacity="1" stroke-opacity="1"/><path d="M1215,232L1271,343L1329,239Z" fill="#5fa868" stroke="#5fa868" fill-opacity="1" stroke-opacity="1"/><path d="M1329,239L1271,343L1394,339Z" fill="#559e61" stroke="#559e61" fill-opacity="1" stroke-opacity="1"/><path d="M1329,239L1394,339L1513,176Z" fill="#649962" stroke="#649962" fill-opacity="1" stroke-opacity="1"/><path d="M1513,176L1394,339L1531,338Z" fill="#5b8e5a" stroke="#5b8e5a" fill-opacity="1" stroke-opacity="1"/><path d="M1513,176L1531,338L1659,206Z" fill="#67875a" stroke="#67875a" fill-opacity="1" stroke-opacity="1"/><path d="M1659,206L1531,338L1606,347Z" fill="#587e52" stroke="#587e52" fill-opacity="1" stroke-opacity="1"/><path d="M1659,206L1606,347L1647,566Z" fill="#427446" stroke="#427446" fill-opacity="1" stroke-opacity="1"/><path d="M-22,325L-70,499L18,495Z" fill="#aae7a1" stroke="#aae7a1" fill-opacity="1" stroke-opacity="1"/><path d="M-22,325L18,495L81,367Z" fill="#b8eea5" stroke="#b8eea5" fill-opacity="1" stroke-opacity="1"/><path d="M81,367L18,495L181,434Z" fill="#a5e699" stroke="#a5e699" fill-opacity="1" stroke-opacity="1"/><path d="M81,367L181,434L236,308Z" fill="#b6ef9e" stroke="#b6ef9e" fill-opacity="1" stroke-opacity="1"/><path d="M236,308L181,434L276,466Z" fill="#a5e793" stroke="#a5e793" fill-opacity="1" stroke-opacity="1"/><path d="M236,308L276,466L343,298Z" fill="#b0ec98" stroke="#b0ec98" fill-opacity="1" stroke-opacity="1"/><path d="M343,298L276,466L453,473Z" fill="#96e08b" stroke="#96e08b" fill-opacity="1" stroke-opacity="1"/><path d="M343,298L453,473L466,280Z" fill="#a6e893" stroke="#a6e893" fill-opacity="1" stroke-opacity="1"/><path d="M466,280L453,473L583,362Z" fill="#97e18c" stroke="#97e18c" fill-opacity="1" stroke-opacity="1"/><path d="M583,362L453,473L593,482Z" fill="#7ad37d" stroke="#7ad37d" fill-opacity="1" stroke-opacity="1"/><path d="M583,362L593,482L731,445Z" fill="#74d17b" stroke="#74d17b" fill-opacity="1" stroke-opacity="1"/><path d="M583,362L731,445L689,321Z" fill="#83d984" stroke="#83d984" fill-opacity="1" stroke-opacity="1"/><path d="M689,321L731,445L812,290Z" fill="#82d883" stroke="#82d883" fill-opacity="1" stroke-opacity="1"/><path d="M812,290L731,445L807,488Z" fill="#69cc77" stroke="#69cc77" fill-opacity="1" stroke-opacity="1"/><path d="M812,290L807,488L957,409Z" fill="#62c973" stroke="#62c973" fill-opacity="1" stroke-opacity="1"/><path d="M812,290L957,409L945,329Z" fill="#6ccd78" stroke="#6ccd78" fill-opacity="1" stroke-opacity="1"/><path d="M945,329L957,409L1135,372Z" fill="#56bf6d" stroke="#56bf6d" fill-opacity="1" stroke-opacity="1"/><path d="M1135,372L957,409L1146,453Z" fill="#41b061" stroke="#41b061" fill-opacity="1" stroke-opacity="1"/><path d="M1135,372L1146,453L1212,443Z" fill="#34a35a" stroke="#34a35a" fill-opacity="1" stroke-opacity="1"/><path d="M1135,372L1212,443L1271,343Z" fill="#3ea55e" stroke="#3ea55e" fill-opacity="1" stroke-opacity="1"/><path d="M1271,343L1212,443L1390,425Z" fill="#379756" stroke="#379756" fill-opacity="1" stroke-opacity="1"/><path d="M1271,343L1390,425L1394,339Z" fill="#449659" stroke="#449659" fill-opacity="1" stroke-opacity="1"/><path d="M1394,339L1390,425L1509,429Z" fill="#3a874e" stroke="#3a874e" fill-opacity="1" stroke-opacity="1"/><path d="M1394,339L1509,429L1531,338Z" fill="#448651" stroke="#448651" fill-opacity="1" stroke-opacity="1"/><path d="M1531,338L1509,429L1606,347Z" fill="#437d4c" stroke="#437d4c" fill-opacity="1" stroke-opacity="1"/><path d="M1606,347L1509,429L1599,468Z" fill="#347343" stroke="#347343" fill-opacity="1" stroke-opacity="1"/><path d="M1606,347L1599,468L1647,566Z" fill="#236538" stroke="#236538" fill-opacity="1" stroke-opacity="1"/><path d="M-70,499L-82,537L18,495Z" fill="#95d797" stroke="#95d797" fill-opacity="1" stroke-opacity="1"/><path d="M18,495L-82,537L19,617Z" fill="#8bcc8f" stroke="#8bcc8f" fill-opacity="1" stroke-opacity="1"/><path d="M18,495L19,617L175,634Z" fill="#7ec083" stroke="#7ec083" fill-opacity="1" stroke-opacity="1"/><path d="M18,495L175,634L181,434Z" fill="#88d087" stroke="#88d087" fill-opacity="1" stroke-opacity="1"/><path d="M181,434L175,634L276,466Z" fill="#84d081" stroke="#84d081" fill-opacity="1" stroke-opacity="1"/><path d="M276,466L175,634L303,564Z" fill="#76c278" stroke="#76c278" fill-opacity="1" stroke-opacity="1"/><path d="M276,466L303,564L453,473Z" fill="#7ace7c" stroke="#7ace7c" fill-opacity="1" stroke-opacity="1"/><path d="M453,473L303,564L482,632Z" fill="#67bb71" stroke="#67bb71" fill-opacity="1" stroke-opacity="1"/><path d="M453,473L482,632L601,575Z" fill="#5cb66c" stroke="#5cb66c" fill-opacity="1" stroke-opacity="1"/><path d="M453,473L601,575L593,482Z" fill="#64c371" stroke="#64c371" fill-opacity="1" stroke-opacity="1"/><path d="M593,482L601,575L731,445Z" fill="#5cc16f" stroke="#5cc16f" fill-opacity="1" stroke-opacity="1"/><path d="M731,445L601,575L762,631Z" fill="#4ab065" stroke="#4ab065" fill-opacity="1" stroke-opacity="1"/><path d="M731,445L762,631L807,488Z" fill="#48b465" stroke="#48b465" fill-opacity="1" stroke-opacity="1"/><path d="M807,488L762,631L830,621Z" fill="#34a05a" stroke="#34a05a" fill-opacity="1" stroke-opacity="1"/><path d="M807,488L830,621L993,598Z" fill="#2c9e55" stroke="#2c9e55" fill-opacity="1" stroke-opacity="1"/><path d="M807,488L993,598L957,409Z" fill="#37b05c" stroke="#37b05c" fill-opacity="1" stroke-opacity="1"/><path d="M957,409L993,598L1146,453Z" fill="#2ca756" stroke="#2ca756" fill-opacity="1" stroke-opacity="1"/><path d="M1146,453L993,598L1058,626Z" fill="#178e4a" stroke="#178e4a" fill-opacity="1" stroke-opacity="1"/><path d="M1146,453L1058,626L1192,613Z" fill="#0f8445" stroke="#0f8445" fill-opacity="1" stroke-opacity="1"/><path d="M1146,453L1192,613L1212,443Z" fill="#19904b" stroke="#19904b" fill-opacity="1" stroke-opacity="1"/><path d="M1212,443L1192,613L1396,547Z" fill="#0f7d41" stroke="#0f7d41" fill-opacity="1" stroke-opacity="1"/><path d="M1212,443L1396,547L1390,425Z" fill="#1f8647" stroke="#1f8647" fill-opacity="1" stroke-opacity="1"/><path d="M1390,425L1396,547L1509,429Z" fill="#217b42" stroke="#217b42" fill-opacity="1" stroke-opacity="1"/><path d="M1509,429L1396,547L1528,565Z" fill="#146937" stroke="#146937" fill-opacity="1" stroke-opacity="1"/><path d="M1509,429L1528,565L1599,468Z" fill="#1b6837" stroke="#1b6837" fill-opacity="1" stroke-opacity="1"/><path d="M1599,468L1528,565L1647,566Z" fill="#10552e" stroke="#10552e" fill-opacity="1" stroke-opacity="1"/><path d="M-82,537L-108,888L-39,762Z" fill="#80977a" stroke="#80977a" fill-opacity="1" stroke-opacity="1"/><path d="M-82,537L-39,762L19,617Z" fill="#80b184" stroke="#80b184" fill-opacity="1" stroke-opacity="1"/><path d="M19,617L-39,762L97,712Z" fill="#7e9f76" stroke="#7e9f76" fill-opacity="1" stroke-opacity="1"/><path d="M19,617L97,712L175,634Z" fill="#78aa76" stroke="#78aa76" fill-opacity="1" stroke-opacity="1"/><path d="M175,634L97,712L158,756Z" fill="#749b6b" stroke="#749b6b" fill-opacity="1" stroke-opacity="1"/><path d="M175,634L158,756L340,703Z" fill="#6e9965" stroke="#6e9965" fill-opacity="1" stroke-opacity="1"/><path d="M175,634L340,703L303,564Z" fill="#6aaa6b" stroke="#6aaa6b" fill-opacity="1" stroke-opacity="1"/><path d="M303,564L340,703L482,632Z" fill="#60a667" stroke="#60a667" fill-opacity="1" stroke-opacity="1"/><path d="M482,632L340,703L424,746Z" fill="#5d935d" stroke="#5d935d" fill-opacity="1" stroke-opacity="1"/><path d="M482,632L424,746L618,718Z" fill="#548d58" stroke="#548d58" fill-opacity="1" stroke-opacity="1"/><path d="M482,632L618,718L601,575Z" fill="#4d9c5d" stroke="#4d9c5d" fill-opacity="1" stroke-opacity="1"/><path d="M601,575L618,718L762,631Z" fill="#439759" stroke="#439759" fill-opacity="1" stroke-opacity="1"/><path d="M762,631L618,718L685,739Z" fill="#408650" stroke="#408650" fill-opacity="1" stroke-opacity="1"/><path d="M762,631L685,739L824,753Z" fill="#377e4a" stroke="#377e4a" fill-opacity="1" stroke-opacity="1"/><path d="M762,631L824,753L830,621Z" fill="#30864c" stroke="#30864c" fill-opacity="1" stroke-opacity="1"/><path d="M830,621L824,753L929,671Z" fill="#277e46" stroke="#277e46" fill-opacity="1" stroke-opacity="1"/><path d="M830,621L929,671L993,598Z" fill="#1f8949" stroke="#1f8949" fill-opacity="1" stroke-opacity="1"/><path d="M993,598L929,671L1058,626Z" fill="#158144" stroke="#158144" fill-opacity="1" stroke-opacity="1"/><path d="M1058,626L929,671L1098,708Z" fill="#12723c" stroke="#12723c" fill-opacity="1" stroke-opacity="1"/><path d="M1058,626L1098,708L1192,613Z" fill="#096d3a" stroke="#096d3a" fill-opacity="1" stroke-opacity="1"/><path d="M1192,613L1098,708L1241,746Z" fill="#035a30" stroke="#035a30" fill-opacity="1" stroke-opacity="1"/><path d="M1192,613L1241,746L1404,729Z" fill="#004c29" stroke="#004c29" fill-opacity="1" stroke-opacity="1"/><path d="M1192,613L1404,729L1396,547Z" fill="#00592f" stroke="#00592f" fill-opacity="1" stroke-opacity="1"/><path d="M1396,547L1404,729L1466,669Z" fill="#004827" stroke="#004827" fill-opacity="1" stroke-opacity="1"/><path d="M1396,547L1466,669L1528,565Z" fill="#01532d" stroke="#01532d" fill-opacity="1" stroke-opacity="1"/><path d="M1528,565L1466,669L1617,710Z" fill="#003a20" stroke="#003a20" fill-opacity="1" stroke-opacity="1"/><path d="M1528,565L1617,710L1647,566Z" fill="#003c22" stroke="#003c22" fill-opacity="1" stroke-opacity="1"/><path d="M-39,762L-108,888L54,817Z" fill="#808069" stroke="#808069" fill-opacity="1" stroke-opacity="1"/><path d="M-39,762L54,817L97,712Z" fill="#7d8c6b" stroke="#7d8c6b" fill-opacity="1" stroke-opacity="1"/><path d="M97,712L54,817L158,756Z" fill="#788a66" stroke="#788a66" fill-opacity="1" stroke-opacity="1"/><path d="M158,756L54,817L169,842Z" fill="#767d5d" stroke="#767d5d" fill-opacity="1" stroke-opacity="1"/><path d="M158,756L169,842L295,886Z" fill="#6f7955" stroke="#6f7955" fill-opacity="1" stroke-opacity="1"/><path d="M158,756L295,886L340,703Z" fill="#6b7f56" stroke="#6b7f56" fill-opacity="1" stroke-opacity="1"/><path d="M340,703L295,886L424,746Z" fill="#627c53" stroke="#627c53" fill-opacity="1" stroke-opacity="1"/><path d="M424,746L295,886L451,860Z" fill="#5f724b" stroke="#5f724b" fill-opacity="1" stroke-opacity="1"/><path d="M424,746L451,860L598,833Z" fill="#566e48" stroke="#566e48" fill-opacity="1" stroke-opacity="1"/><path d="M424,746L598,833L618,718Z" fill="#4f784c" stroke="#4f784c" fill-opacity="1" stroke-opacity="1"/><path d="M618,718L598,833L685,739Z" fill="#467449" stroke="#467449" fill-opacity="1" stroke-opacity="1"/><path d="M685,739L598,833L724,801Z" fill="#426b43" stroke="#426b43" fill-opacity="1" stroke-opacity="1"/><path d="M685,739L724,801L824,753Z" fill="#396e43" stroke="#396e43" fill-opacity="1" stroke-opacity="1"/><path d="M824,753L724,801L875,845Z" fill="#2f5f38" stroke="#2f5f38" fill-opacity="1" stroke-opacity="1"/><path d="M824,753L875,845L956,839Z" fill="#245731" stroke="#245731" fill-opacity="1" stroke-opacity="1"/><path d="M824,753L956,839L929,671Z" fill="#216638" stroke="#216638" fill-opacity="1" stroke-opacity="1"/><path d="M929,671L956,839L1098,708Z" fill="#156234" stroke="#156234" fill-opacity="1" stroke-opacity="1"/><path d="M1098,708L956,839L1145,823Z" fill="#0e4a28" stroke="#0e4a28" fill-opacity="1" stroke-opacity="1"/><path d="M1098,708L1145,823L1241,746Z" fill="#044827" stroke="#044827" fill-opacity="1" stroke-opacity="1"/><path d="M1241,746L1145,823L1192,878Z" fill="#01351d" stroke="#01351d" fill-opacity="1" stroke-opacity="1"/><path d="M1241,746L1192,878L1345,832Z" fill="#002d18" stroke="#002d18" fill-opacity="1" stroke-opacity="1"/><path d="M1241,746L1345,832L1404,729Z" fill="#00301b" stroke="#00301b" fill-opacity="1" stroke-opacity="1"/><path d="M1404,729L1345,832L1522,797Z" fill="#001f13" stroke="#001f13" fill-opacity="1" stroke-opacity="1"/><path d="M1404,729L1522,797L1466,669Z" fill="#002a18" stroke="#002a18" fill-opacity="1" stroke-opacity="1"/><path d="M1466,669L1522,797L1617,710Z" fill="#002415" stroke="#002415" fill-opacity="1" stroke-opacity="1"/><path d="M1617,710L1522,797L1587,834Z" fill="#000e0b" stroke="#000e0b" fill-opacity="1" stroke-opacity="1"/><path d="M-108,888L295,886L169,842Z" fill="#767c5c" stroke="#767c5c" fill-opacity="1" stroke-opacity="1"/><path d="M-108,888L169,842L54,817Z" fill="#7d7f63" stroke="#7d7f63" fill-opacity="1" stroke-opacity="1"/><path d="M295,886L1192,878L875,845Z" fill="#325e38" stroke="#325e38" fill-opacity="1" stroke-opacity="1"/><path d="M295,886L875,845L451,860Z" fill="#506c45" stroke="#506c45" fill-opacity="1" stroke-opacity="1"/><path d="M451,860L875,845L598,833Z" fill="#456740" stroke="#456740" fill-opacity="1" stroke-opacity="1"/><path d="M598,833L875,845L724,801Z" fill="#3a623c" stroke="#3a623c" fill-opacity="1" stroke-opacity="1"/><path d="M875,845L1192,878L956,839Z" fill="#144c27" stroke="#144c27" fill-opacity="1" stroke-opacity="1"/><path d="M956,839L1192,878L1145,823Z" fill="#0b4122" stroke="#0b4122" fill-opacity="1" stroke-opacity="1"/><path d="M1192,878L1587,834L1345,832Z" fill="#001f11" stroke="#001f11" fill-opacity="1" stroke-opacity="1"/><path d="M1345,832L1587,834L1522,797Z" fill="#00110b" stroke="#00110b" fill-opacity="1" stroke-opacity="1"/></g></svg>